<svg width="243" height="33" viewBox="0 0 243 33" fill="none" xmlns="http://www.w3.org/2000/svg">
<path d="M1.50391 26V6.09375H8.6543C11.2155 6.09375 13.1615 6.56315 14.4922 7.50195C15.832 8.44076 16.502 9.80339 16.502 11.5898C16.502 12.6198 16.265 13.4993 15.791 14.2285C15.3171 14.9577 14.6198 15.4954 13.6992 15.8418C14.7383 16.1152 15.5358 16.6257 16.0918 17.373C16.6478 18.1204 16.9258 19.0319 16.9258 20.1074C16.9258 22.0579 16.306 23.5254 15.0664 24.5098C13.8359 25.485 12.0085 25.9818 9.58398 26H1.50391ZM6.30273 17.5371V22.3086H9.44727C10.3132 22.3086 10.9785 22.1126 11.4434 21.7207C11.9082 21.3197 12.1406 20.7591 12.1406 20.0391C12.1406 18.3802 11.3158 17.5462 9.66602 17.5371H6.30273ZM6.30273 14.3926H8.80469C9.85286 14.3835 10.6003 14.1921 11.0469 13.8184C11.4935 13.4447 11.7168 12.8932 11.7168 12.1641C11.7168 11.3255 11.4753 10.724 10.9922 10.3594C10.5091 9.98568 9.72982 9.79883 8.6543 9.79883H6.30273V14.3926ZM37.8355 16.457C37.8355 18.3984 37.4755 20.1165 36.7555 21.6113C36.0354 23.1061 35.01 24.2591 33.6793 25.0703C32.3577 25.8724 30.8492 26.2734 29.1539 26.2734C27.4586 26.2734 25.9547 25.8861 24.6422 25.1113C23.3297 24.3275 22.3043 23.2109 21.566 21.7617C20.8368 20.3125 20.454 18.6491 20.4176 16.7715V15.6504C20.4176 13.6999 20.773 11.9818 21.484 10.4961C22.204 9.0013 23.2294 7.84831 24.5602 7.03711C25.9 6.22591 27.4221 5.82031 29.1266 5.82031C30.8128 5.82031 32.3167 6.22135 33.6383 7.02344C34.9599 7.82552 35.9853 8.9694 36.7145 10.4551C37.4527 11.9316 37.8264 13.627 37.8355 15.541V16.457ZM32.9547 15.623C32.9547 13.6452 32.622 12.1458 31.9566 11.125C31.3004 10.0951 30.357 9.58008 29.1266 9.58008C26.7203 9.58008 25.4488 11.3848 25.3121 14.9941L25.2984 16.457C25.2984 18.4076 25.622 19.9069 26.2691 20.9551C26.9163 22.0033 27.8779 22.5273 29.1539 22.5273C30.3661 22.5273 31.3004 22.0124 31.9566 20.9824C32.6129 19.9525 32.9456 18.4714 32.9547 16.5391V15.623ZM58.5676 16.457C58.5676 18.3984 58.2076 20.1165 57.4875 21.6113C56.7674 23.1061 55.7421 24.2591 54.4113 25.0703C53.0897 25.8724 51.5812 26.2734 49.8859 26.2734C48.1906 26.2734 46.6867 25.8861 45.3742 25.1113C44.0617 24.3275 43.0363 23.2109 42.298 21.7617C41.5689 20.3125 41.1861 18.6491 41.1496 16.7715V15.6504C41.1496 13.6999 41.5051 11.9818 42.216 10.4961C42.9361 9.0013 43.9615 7.84831 45.2922 7.03711C46.632 6.22591 48.1542 5.82031 49.8586 5.82031C51.5448 5.82031 53.0487 6.22135 54.3703 7.02344C55.6919 7.82552 56.7173 8.9694 57.4465 10.4551C58.1848 11.9316 58.5585 13.627 58.5676 15.541V16.457ZM53.6867 15.623C53.6867 13.6452 53.354 12.1458 52.6887 11.125C52.0324 10.0951 51.0891 9.58008 49.8586 9.58008C47.4523 9.58008 46.1809 11.3848 46.0441 14.9941L46.0305 16.457C46.0305 18.4076 46.354 19.9069 47.0012 20.9551C47.6483 22.0033 48.6099 22.5273 49.8859 22.5273C51.0982 22.5273 52.0324 22.0124 52.6887 20.9824C53.3449 19.9525 53.6776 18.4714 53.6867 16.5391V15.623ZM69.2098 18.5898L67.241 20.75V26H62.4422V6.09375H67.241V14.8711L68.909 12.3418L73.202 6.09375H79.1355L72.409 14.8984L79.1355 26H73.448L69.2098 18.5898ZM86.8656 26H82.0805V6.09375H86.8656V26ZM108.227 26H103.455L96.4004 13.6133V26H91.6016V6.09375H96.4004L103.441 18.4805V6.09375H108.227V26ZM128.959 23.5391C128.22 24.3594 127.14 25.0202 125.718 25.5215C124.296 26.0228 122.738 26.2734 121.043 26.2734C118.436 26.2734 116.353 25.4759 114.795 23.8809C113.236 22.2858 112.402 20.0664 112.293 17.2227L112.279 15.5C112.279 13.5404 112.625 11.8314 113.318 10.373C114.011 8.9056 115 7.77995 116.285 6.99609C117.579 6.20312 119.074 5.80664 120.769 5.80664C123.248 5.80664 125.171 6.3763 126.539 7.51562C127.915 8.64583 128.717 10.3366 128.945 12.5879H124.324C124.16 11.4759 123.804 10.6829 123.257 10.209C122.711 9.73503 121.936 9.49805 120.933 9.49805C119.73 9.49805 118.8 10.0085 118.144 11.0293C117.488 12.0501 117.155 13.5085 117.146 15.4043V16.6074C117.146 18.5944 117.483 20.0892 118.158 21.0918C118.841 22.0853 119.912 22.582 121.371 22.582C122.619 22.582 123.549 22.304 124.16 21.748V18.6582H120.824V15.3633H128.959V23.5391Z" fill="white"/>
<path d="M155.79 21.1055C155.79 20.0026 155.402 19.1322 154.628 18.4941C153.853 17.847 152.436 17.2363 150.376 16.6621C148.316 16.0788 146.812 15.4453 145.864 14.7617C144.515 13.7956 143.841 12.5286 143.841 10.9609C143.841 9.4388 144.465 8.20378 145.714 7.25586C146.971 6.29883 148.576 5.82031 150.526 5.82031C151.848 5.82031 153.028 6.07552 154.067 6.58594C155.115 7.09635 155.927 7.80729 156.501 8.71875C157.075 9.63021 157.362 10.6465 157.362 11.7676H155.667C155.667 10.4095 155.202 9.32031 154.272 8.5C153.343 7.67057 152.094 7.25586 150.526 7.25586C149.004 7.25586 147.792 7.59766 146.889 8.28125C145.987 8.95573 145.536 9.83984 145.536 10.9336C145.536 11.9453 145.942 12.7702 146.753 13.4082C147.564 14.0462 148.863 14.6113 150.649 15.1035C152.436 15.5866 153.789 16.0924 154.71 16.6211C155.63 17.1406 156.323 17.765 156.788 18.4941C157.253 19.2233 157.485 20.0846 157.485 21.0781C157.485 22.6458 156.856 23.9036 155.598 24.8516C154.35 25.7995 152.7 26.2734 150.649 26.2734C149.246 26.2734 147.956 26.0228 146.78 25.5215C145.613 25.0202 144.725 24.3184 144.114 23.416C143.512 22.5137 143.212 21.4792 143.212 20.3125H144.893C144.893 21.7161 145.417 22.8236 146.466 23.6348C147.514 24.446 148.908 24.8516 150.649 24.8516C152.199 24.8516 153.443 24.5098 154.382 23.8262C155.32 23.1426 155.79 22.2357 155.79 21.1055ZM167.004 17.8926V26H165.322V6.09375H172.103C174.172 6.09375 175.804 6.6224 176.998 7.67969C178.201 8.73698 178.802 10.1908 178.802 12.041C178.802 13.9095 178.224 15.3542 177.066 16.375C175.918 17.3867 174.25 17.8926 172.062 17.8926H167.004ZM167.004 16.4707H172.103C173.735 16.4707 174.979 16.0833 175.836 15.3086C176.692 14.5339 177.121 13.4538 177.121 12.0684C177.121 10.6921 176.692 9.59831 175.836 8.78711C174.988 7.9668 173.78 7.54753 172.212 7.5293H167.004V16.4707ZM195.635 20.4219H186.598L184.547 26H182.784L190.317 6.09375H191.916L199.45 26H197.7L195.635 20.4219ZM187.118 18.9863H195.102L191.11 8.14453L187.118 18.9863ZM220.521 19.793C220.293 21.8893 219.541 23.4935 218.265 24.6055C216.998 25.7174 215.307 26.2734 213.193 26.2734C211.716 26.2734 210.408 25.9043 209.269 25.166C208.139 24.4277 207.264 23.3841 206.644 22.0352C206.024 20.6771 205.71 19.1276 205.7 17.3867V14.8027C205.7 13.0345 206.01 11.4668 206.63 10.0996C207.25 8.73242 208.139 7.67969 209.296 6.94141C210.463 6.19401 211.803 5.82031 213.316 5.82031C215.448 5.82031 217.13 6.39909 218.361 7.55664C219.6 8.70508 220.32 10.2956 220.521 12.3281H218.825C218.406 8.94661 216.57 7.25586 213.316 7.25586C211.511 7.25586 210.071 7.93034 208.995 9.2793C207.929 10.6283 207.396 12.4922 207.396 14.8711V17.3047C207.396 19.6016 207.915 21.4336 208.954 22.8008C210.002 24.168 211.415 24.8516 213.193 24.8516C214.952 24.8516 216.278 24.4323 217.171 23.5938C218.064 22.7461 218.616 21.4792 218.825 19.793H220.521ZM239.801 16.457H230.49V24.5781H241.195V26H228.809V6.09375H241.127V7.5293H230.49V15.0352H239.801V16.457Z" fill="white"/>
</svg>
